<svg width="39" height="40" viewBox="0 0 39 40" fill="none" xmlns="http://www.w3.org/2000/svg">
<path d="M27.4785 8.68008V11.8801H25.8785V13.4801H24.2785V15.0801H22.6785V16.6801H21.0785V18.2801H19.4785V21.4801H21.0785V23.0801H22.6785V24.6801H24.2785V26.2801H25.8785V27.8801H27.4785V31.0801H25.8785V32.6801H22.6785V31.0801H21.0785V29.4801H19.4785V27.8801H17.8785V26.2801H16.2785V24.6801H14.6785V23.0801H13.0785V21.4801H11.4785V18.2801H13.0785V16.6801H14.6785V15.0801H16.2785V13.4801H17.8785V11.8801H19.4785V10.2801H21.0785V8.68008H22.6785V7.08008H25.8785V8.68008H27.4785Z" fill="white"/>
</svg>
