<svg width="39" height="40" viewBox="0 0 39 40" fill="none" xmlns="http://www.w3.org/2000/svg">
<g opacity="0.9">
<path d="M11.5195 31.0801V27.8801H13.1195V26.2801H14.7195V24.6801H16.3195V23.0801H17.9195V21.4801H19.5195V18.2801H17.9195V16.6801H16.3195V15.0801H14.7195V13.4801H13.1195V11.8801H11.5195V8.68008H13.1195V7.08008H16.3195V8.68008H17.9195V10.2801H19.5195V11.8801H21.1195V13.4801H22.7195V15.0801H24.3195V16.6801H25.9195V18.2801H27.5195V21.4801H25.9195V23.0801H24.3195V24.6801H22.7195V26.2801H21.1195V27.8801H19.5195V29.4801H17.9195V31.0801H16.3195V32.6801H13.1195V31.0801H11.5195Z" fill="#FFFFFD"/>
</g>
</svg>
