<svg width="25" height="25" viewBox="0 0 25 25" fill="none" xmlns="http://www.w3.org/2000/svg">
<path d="M17.4068 15.3588V14.3348H16.3828V13.3108H17.4068V11.2628H16.3828V10.2388H17.4068V9.21484H18.4308V10.2388H19.4548V14.3348H18.4308V15.3588H17.4068Z" fill="white"/>
<path d="M23.5516 10.2405V14.3365H22.5276V16.3845H21.5036V17.4085H20.4796V18.4325H19.4556V17.4085H18.4316V16.3845H19.4556V15.3605H20.4796V14.3365H21.5036V10.2405H20.4796V9.21653H19.4556V8.19253H18.4316V7.16853H19.4556V6.14453H20.4796V7.16853H21.5036V8.19253H22.5276V10.2405H23.5516Z" fill="white"/>
<path d="M11.2634 2.04688V3.07087H10.2394V4.09487H9.21544V5.11887H8.19144V6.14287H7.16744V7.16687H6.14344V8.19087H1.02344V16.3829H6.14344V17.4069H7.16744V18.4309H8.19144V19.4549H9.21544V20.4789H10.2394V21.5029H11.2634V22.5269H14.3354V2.04688H11.2634ZM12.2874 19.4549H11.2634V18.4309H10.2394V17.4069H9.21544V16.3829H8.19144V15.3589H7.16744V14.3349H3.07144V10.2389H7.16744V9.21487H8.19144V8.19087H9.21544V7.16687H10.2394V6.14287H11.2634V5.11887H12.2874V19.4549Z" fill="white"/>
</svg>
