<svg width="26" height="25" viewBox="0 0 26 25" fill="none" xmlns="http://www.w3.org/2000/svg">
<path d="M11.9705 2.44141V3.46541H10.9465V4.48941H9.92247V5.51341H8.89847V6.53741H7.87447V7.56141H6.85047V8.58541H1.73047V16.7774H6.85047V17.8014H7.87447V18.8254H8.89847V19.8494H9.92247V20.8734H10.9465V21.8974H11.9705V22.9214H15.0425V2.44141H11.9705ZM12.9945 19.8494H11.9705V18.8254H10.9465V17.8014H9.92247V16.7774H8.89847V15.7534H7.87447V14.7294H3.77847V10.6334H7.87447V9.60941H8.89847V8.58541H9.92247V7.56141H10.9465V6.53741H11.9705V5.51341H12.9945V19.8494Z" fill="white"/>
<path d="M23.2434 8.58398V10.6323H22.2192V11.6565H21.1951V13.7048H22.2192V14.729H23.2434V16.7773H21.1951V15.7532H20.1709V14.729H19.1467V15.7532H18.1226V16.7773H16.0742V14.729H17.0984V13.7048H18.1226V11.6565H17.0984V10.6323H16.0742V8.58398H18.1226V9.60815H19.1467V10.6323H20.1709V9.60815H21.1951V8.58398H23.2434Z" fill="white"/>
</svg>
