<svg width="26" height="25" viewBox="0 0 26 25" fill="none" xmlns="http://www.w3.org/2000/svg">
<path d="M15.0485 2.43945V22.9228H11.976V21.8986H10.9519V20.8745H9.92771V19.8503H8.90354V18.8261H7.87938V17.802H6.85521V16.7778H1.73438V8.58445H6.85521V7.56029H7.87938V6.53612H8.90354V5.51195H9.92771V4.48779H10.9519V3.46362H11.976V2.43945H15.0485Z" fill="white"/>
<path d="M23.2434 8.58398V10.6323H22.2192V11.6565H21.1951V13.7048H22.2192V14.729H23.2434V16.7773H21.1951V15.7532H20.1709V14.729H19.1467V15.7532H18.1226V16.7773H16.0742V14.729H17.0984V13.7048H18.1226V11.6565H17.0984V10.6323H16.0742V8.58398H18.1226V9.60815H19.1467V10.6323H20.1709V9.60815H21.1951V8.58398H23.2434Z" fill="white"/>
</svg>
